<svg version="1.2" xmlns="http://www.w3.org/2000/svg" viewBox="0 0 192 203" width="192" height="203">
	<title>event-svgrepo-com</title>
	<style>
		.s0 { fill: #ffffff;stroke: #ffffff;stroke-width: .4 } 
	</style>
	<g id="SVGRepo_iconCarrier">
		<path fill-rule="evenodd" class="s0" d="m46.7 1.1c1.3 0.6 2.5 1.4 3.5 2.4 1 0.9 1.8 2.1 2.3 3.4 0.6 1.3 0.8 2.7 0.8 4.1v10.7h85.4v-10.7c0-2.8 1.1-5.5 3.1-7.5 2-2 4.7-3.2 7.5-3.2 2.9 0 5.6 1.2 7.6 3.2 2 2 3.1 4.7 3.1 7.5v10.7c10.3 0.1 14.3 1.4 18.4 3.5q1.6 0.9 3 2 1.5 1 2.8 2.3 1.2 1.3 2.3 2.8 1.1 1.4 1.9 3c2.4 4.4 3.6 8.7 3.6 20.6v112.9c0 11.9-1.2 16.2-3.6 20.6-2.3 4.3-5.7 7.7-10 10-4.4 2.4-8.7 3.6-20.6 3.6h-123.6c-11.9 0-16.2-1.2-20.6-3.6-4.3-2.3-7.7-5.7-10-10-2.4-4.4-3.6-8.7-3.6-20.6v-112.9c0-11.9 1.2-16.2 3.6-20.6q0.8-1.6 1.9-3 1.1-1.5 2.3-2.8 1.3-1.3 2.8-2.3 1.4-1.1 3-2c4.1-2.1 8.1-3.4 18.4-3.5v-10.7c0-1.4 0.3-2.8 0.8-4.1 0.5-1.3 1.3-2.5 2.3-3.4 1-1 2.2-1.8 3.5-2.4 1.3-0.5 2.7-0.8 4.1-0.8 1.4 0 2.8 0.3 4 0.8zm-25.4 73.9v93.8c0 4.6 0.2 7.4 0.6 9.1 0.1 0.6 0.1 0.8 0.5 1.4q0.1 0.2 0.2 0.4 0.2 0.2 0.3 0.4 0.2 0.1 0.4 0.3 0.2 0.1 0.4 0.2c0.6 0.4 0.8 0.4 1.4 0.5 1.7 0.4 4.5 0.6 9.1 0.6h123.6c4.6 0 7.4-0.2 9.1-0.6q0.2 0 0.3 0 0.2-0.1 0.4-0.1 0.2-0.1 0.4-0.2 0.1-0.1 0.3-0.2 0.2-0.1 0.4-0.2 0.2-0.2 0.4-0.3 0.1-0.2 0.3-0.4 0.1-0.2 0.2-0.4 0.1-0.2 0.2-0.3 0.1-0.2 0.2-0.4 0-0.2 0.1-0.4 0-0.1 0-0.3c0.4-1.7 0.6-4.5 0.6-9.1v-93.8zm120 42.7q1.6 0 3.1 0.6 1.4 0.6 2.6 1.7 1.1 1.1 1.7 2.6 0.6 1.5 0.6 3.1v26.6q0 1.6-0.6 3.1-0.6 1.5-1.7 2.6-1.2 1.1-2.6 1.7-1.5 0.6-3.1 0.6h-26.7c-4.4 0-8-3.6-8-8v-26.6q0-1.6 0.7-3.1 0.6-1.5 1.7-2.6 1.1-1.1 2.6-1.7 1.5-0.6 3-0.6z"/>
	</g>
</svg>