<svg width="70" height="53" viewBox="0 0 70 53" fill="none" xmlns="http://www.w3.org/2000/svg">
<path d="M59.2288 4.40448C54.7954 2.35127 49.9953 0.861027 44.9951 0C44.9072 0.0012442 44.8233 0.0369539 44.7618 0.09935C44.1618 1.19219 43.4617 2.6162 42.9951 3.70904C37.6915 2.91474 32.2981 2.91474 26.9946 3.70904C26.5279 2.58308 25.8279 1.19219 25.1946 0.09935C25.1612 0.0331171 25.0612 0 24.9612 0C19.9611 0.861027 15.1943 2.35127 10.7275 4.40448C10.6942 4.40448 10.6608 4.4376 10.6275 4.47072C1.56059 17.9491 -0.939479 31.0632 0.293888 44.0448C0.293888 44.1111 0.327223 44.1773 0.393891 44.2104C6.39406 48.5818 12.1609 51.2311 17.861 52.9863C17.961 53.0194 18.061 52.9863 18.0944 52.92C19.4277 51.0986 20.6278 49.1779 21.6611 47.1578C21.7278 47.0253 21.6611 46.8929 21.5278 46.8597C19.6278 46.1312 17.8277 45.2702 16.061 44.2767C15.9277 44.2104 15.9276 44.0117 16.0277 43.9124C16.3943 43.6475 16.761 43.3494 17.1277 43.0845C17.1944 43.0182 17.2944 43.0182 17.361 43.0514C28.828 48.2506 41.195 48.2506 52.5287 43.0514C52.5953 43.0182 52.6953 43.0182 52.762 43.0845C53.1287 43.3825 53.4953 43.6475 53.862 43.9455C53.9954 44.0448 53.9954 44.2435 53.8287 44.3098C52.0953 45.3364 50.2619 46.1643 48.3619 46.8929C48.2285 46.926 48.1952 47.0916 48.2285 47.1909C49.2952 49.211 50.4953 51.1318 51.7953 52.9532C51.8953 52.9863 51.9953 53.0194 52.0953 52.9863C57.8288 51.2311 63.5956 48.5818 69.5958 44.2104C69.6625 44.1773 69.6958 44.1111 69.6958 44.0448C71.1625 29.0431 67.2624 16.0283 59.3622 4.47072C59.3288 4.4376 59.2955 4.40448 59.2288 4.40448ZM23.3945 36.13C19.9611 36.13 17.0944 32.984 17.0944 29.1093C17.0944 25.2347 19.8944 22.0887 23.3945 22.0887C26.928 22.0887 29.728 25.2678 29.6947 29.1093C29.6947 32.984 26.8946 36.13 23.3945 36.13ZM46.6285 36.13C43.1951 36.13 40.3283 32.984 40.3283 29.1093C40.3283 25.2347 43.1284 22.0887 46.6285 22.0887C50.1619 22.0887 52.962 25.2678 52.9287 29.1093C52.9287 32.984 50.1619 36.13 46.6285 36.13Z" fill="#E6E6E6"/>
</svg>
