<svg width="252" height="201" viewBox="0 0 252 201" fill="none" xmlns="http://www.w3.org/2000/svg">
<path d="M192.633 50.2529C192.633 52.4742 191.751 54.6046 190.18 56.1753C188.609 57.746 186.479 58.6284 184.258 58.6284C182.036 58.6284 179.906 57.746 178.335 56.1753C176.765 54.6046 175.882 52.4742 175.882 50.2529C175.882 48.0316 176.765 45.9013 178.335 44.3306C179.906 42.7599 182.036 41.8774 184.258 41.8774C186.479 41.8774 188.609 42.7599 190.18 44.3306C191.751 45.9013 192.633 48.0316 192.633 50.2529ZM192.633 83.7549C192.633 85.9762 191.751 88.1065 190.18 89.6773C188.609 91.248 186.479 92.1304 184.258 92.1304C182.036 92.1304 179.906 91.248 178.335 89.6773C176.765 88.1065 175.882 85.9762 175.882 83.7549C175.882 81.5336 176.765 79.4032 178.335 77.8325C179.906 76.2618 182.036 75.3794 184.258 75.3794C186.479 75.3794 188.609 76.2618 190.18 77.8325C191.751 79.4032 192.633 81.5336 192.633 83.7549ZM167.507 75.3794C169.728 75.3794 171.858 74.497 173.429 72.9263C175 71.3556 175.882 69.2252 175.882 67.0039C175.882 64.7826 175 62.6523 173.429 61.0815C171.858 59.5108 169.728 58.6284 167.507 58.6284C165.285 58.6284 163.155 59.5108 161.584 61.0815C160.014 62.6523 159.131 64.7826 159.131 67.0039C159.131 69.2252 160.014 71.3556 161.584 72.9263C163.155 74.497 165.285 75.3794 167.507 75.3794ZM209.384 67.0039C209.384 69.2252 208.502 71.3556 206.931 72.9263C205.36 74.497 203.23 75.3794 201.009 75.3794C198.787 75.3794 196.657 74.497 195.086 72.9263C193.516 71.3556 192.633 69.2252 192.633 67.0039C192.633 64.7826 193.516 62.6523 195.086 61.0815C196.657 59.5108 198.787 58.6284 201.009 58.6284C203.23 58.6284 205.36 59.5108 206.931 61.0815C208.502 62.6523 209.384 64.7826 209.384 67.0039ZM71.1886 83.7549C75.6312 83.7549 79.8919 81.99 83.0333 78.8486C86.1747 75.7072 87.9396 71.4465 87.9396 67.0039C87.9396 62.5613 86.1747 58.3006 83.0333 55.1592C79.8919 52.0178 75.6312 50.2529 71.1886 50.2529C66.746 50.2529 62.4853 52.0178 59.3439 55.1592C56.2025 58.3006 54.4376 62.5613 54.4376 67.0039C54.4376 71.4465 56.2025 75.7072 59.3439 78.8486C62.4853 81.99 66.746 83.7549 71.1886 83.7549ZM155.144 130.323C159.587 130.323 163.848 128.558 166.989 125.416C170.131 122.275 171.895 118.014 171.895 113.572C171.895 109.129 170.131 104.868 166.989 101.727C163.848 98.5855 159.587 96.8206 155.144 96.8206C150.702 96.8206 146.441 98.5855 143.3 101.727C140.158 104.868 138.394 109.129 138.394 113.572C138.394 118.014 140.158 122.275 143.3 125.416C146.441 128.558 150.702 130.323 155.144 130.323ZM111.341 109.384H114.691C117.036 109.384 119.297 110.975 119.549 113.32C120.135 116.336 117.79 119.016 114.858 119.016H111.257C109.969 119.016 108.733 119.527 107.822 120.439C106.911 121.35 106.399 122.585 106.399 123.873V127.475C106.399 130.406 103.719 132.751 100.704 132.165C98.3587 131.746 96.7673 129.485 96.7673 127.14V123.79C96.7673 122.501 96.2555 121.266 95.3445 120.355C94.4335 119.444 93.1979 118.932 91.9096 118.932H88.3081C85.3767 118.932 83.0315 116.252 83.6178 113.237C84.0366 110.891 86.298 109.3 88.6431 109.3H91.9933C94.6735 109.3 96.8511 107.122 96.8511 104.442V100.841C96.8511 97.9095 99.5313 95.5643 102.546 96.1506C104.892 96.5694 106.483 98.8308 106.483 101.176V104.526C106.483 107.206 108.661 109.384 111.341 109.384Z" fill="white"/>
<path d="M48.1308 13.3757C42.0475 16.3414 36.6982 20.6205 32.469 25.9041C28.2397 31.1878 25.236 37.3442 23.6744 43.9294V43.9629L23.4064 44.8089L22.4432 48.0083C17.6162 64.1322 13.2813 80.3994 9.44445 96.7871C6.13613 110.984 3.0707 126.302 1.37048 140.047C-0.271118 153.414 -0.80715 166.622 1.86463 175.86C5.71736 189.227 17.9037 196.137 24.8972 199.27H24.914C28.368 200.789 32.1753 201.323 35.9139 200.811C39.6526 200.3 43.1767 198.763 46.0956 196.372L46.171 196.313L46.2463 196.246L52.3521 191.028C61.6374 183.094 70.9342 175.174 80.2425 167.267C82.6624 165.224 85.0913 163.191 87.5291 161.17L87.6966 161.044L87.7469 161.002C89.3382 159.796 91.3149 159.134 93.4003 159.134H157.858C159.743 159.134 161.711 159.762 163.419 160.943L205.188 196.33L205.247 196.372C208.63 199.136 212.701 200.308 216.084 200.66C219.393 201.012 223.187 200.702 226.386 199.295C233.439 196.196 245.516 189.202 249.461 175.919L249.478 175.86L249.494 175.801C252.091 166.572 251.504 153.38 249.804 140.021C248.07 126.286 244.963 110.975 241.638 96.7788C237.517 79.3067 232.836 61.9717 227.601 44.8005L227.341 43.9629L227.333 43.9294C223.271 27.3208 211.26 15.369 196 10.6285C187.273 4.35525 175.212 0 158.545 0L150.923 8.37549H96.6835L89.0618 0C70.0579 0 57.0423 5.64508 48.1308 13.3757ZM39.7302 48.7202L39.8391 48.3852L39.9061 48.1004C43.206 34.2139 55.1914 25.1265 70.0914 25.1265H180.916C195.891 25.1265 207.801 34.2055 211.109 48.1004L211.176 48.3852L211.344 48.9212L211.587 49.7169L212.525 52.8158C217.27 68.6083 221.538 84.5401 225.323 100.59C228.589 114.526 231.554 129.2 233.196 142.132C234.871 155.39 234.954 165.533 233.388 171.195C231.629 177.008 225.683 181.287 219.719 183.926L219.292 184.009C218.81 184.051 218.325 184.051 217.843 184.009C217.146 183.982 216.466 183.78 215.867 183.423L173.755 147.744L173.504 147.559C168.964 144.235 163.493 142.424 157.866 142.383H93.4087C87.7971 142.383 82.2358 144.159 77.6377 147.66C75.837 149.017 65.0661 158.171 55.1579 166.614C50.1074 170.919 45.1575 175.14 41.4723 178.297L35.4503 183.44C34.9373 183.852 34.3234 184.118 33.6724 184.213C33.0215 184.307 32.3571 184.225 31.7484 183.976C25.5254 181.195 19.629 176.974 17.9623 171.212V171.195C16.3291 165.558 16.371 155.407 18.0042 142.099C19.5955 129.175 22.527 114.51 25.7683 100.581C29.7707 83.4805 34.3265 66.514 39.4287 49.7085L39.68 48.9129L39.7302 48.7202Z" fill="white"/>
</svg>
