<svg version="1.2" xmlns="http://www.w3.org/2000/svg" viewBox="0 0 700 700" width="700" height="700">
	<title>home</title>
	<style>
		.s0 { fill: #ffffff;stroke: #ffffff;stroke-width: 33.3 } 
	</style>
	<g id="SVGRepo_bgCarrier">
	</g>
	<g id="SVGRepo_tracerCarrier">
	</g>
	<g id="SVGRepo_iconCarrier">
		<path id="primary" class="s0" d="m673.7 326.3l-300-300c-3.1-3.1-6.8-5.6-10.9-7.3-4-1.7-8.4-2.5-12.8-2.5-4.4 0-8.8 0.8-12.8 2.5-4.1 1.7-7.8 4.2-10.9 7.3l-300 300c-2.3 2.4-4.2 5-5.7 7.9-1.6 2.9-2.7 6-3.3 9.2-0.6 3.3-0.7 6.5-0.4 9.8 0.3 3.3 1.2 6.4 2.4 9.5 1.3 3 3 5.8 5 8.4 2.1 2.5 4.5 4.7 7.2 6.5 2.8 1.9 5.7 3.3 8.8 4.3 3.2 0.9 6.4 1.4 9.7 1.4h33.3v243.4c0.3 7.7 2.1 15.3 5.4 22.3 3.2 7 7.8 13.3 13.4 18.6 5.7 5.3 12.3 9.3 19.6 12 7.2 2.7 14.9 4 22.6 3.7h89c4.4 0 8.7-0.8 12.8-2.5 4-1.7 7.7-4.1 10.8-7.2 3.1-3.1 5.6-6.8 7.2-10.8 1.7-4.1 2.6-8.4 2.6-12.8v-163.3c0-4.4 0.8-8.7 2.5-12.8 1.7-4 4.1-7.7 7.2-10.8 3.1-3.1 6.8-5.6 10.8-7.2 4.1-1.7 8.4-2.6 12.8-2.6h100c4.4 0 8.7 0.9 12.8 2.6 4 1.6 7.7 4.1 10.8 7.2 3.1 3.1 5.5 6.8 7.2 10.8 1.7 4.1 2.5 8.4 2.5 12.8v163.3c0 4.4 0.9 8.7 2.6 12.8 1.6 4 4.1 7.7 7.2 10.8 3.1 3.1 6.8 5.5 10.8 7.2 4.1 1.7 8.4 2.5 12.8 2.5h89c7.7 0.3 15.4-1 22.6-3.7 7.3-2.7 13.9-6.7 19.6-12 5.6-5.3 10.2-11.6 13.4-18.6 3.3-7 5.1-14.6 5.4-22.3v-243.4h33.3c3.3 0 6.5-0.5 9.7-1.4 3.1-1 6-2.4 8.8-4.3 2.7-1.8 5.1-4 7.2-6.5 2-2.6 3.7-5.4 5-8.4 1.2-3.1 2.1-6.2 2.4-9.5 0.3-3.3 0.2-6.5-0.4-9.8-0.6-3.2-1.7-6.3-3.3-9.2-1.5-2.9-3.4-5.5-5.7-7.9z"/>
	</g>
</svg>