<svg width="53" height="53" viewBox="0 0 53 53" fill="none" xmlns="http://www.w3.org/2000/svg">
<path d="M15.37 0H37.63C46.11 0 53 6.89 53 15.37V37.63C53 41.7064 51.3807 45.6158 48.4982 48.4982C45.6158 51.3807 41.7064 53 37.63 53H15.37C6.89 53 0 46.11 0 37.63V15.37C0 11.2936 1.61934 7.3842 4.50177 4.50177C7.3842 1.61934 11.2936 0 15.37 0ZM14.84 5.3C12.3098 5.3 9.8833 6.3051 8.0942 8.0942C6.3051 9.8833 5.3 12.3098 5.3 14.84V38.16C5.3 43.4335 9.5665 47.7 14.84 47.7H38.16C40.6902 47.7 43.1167 46.6949 44.9058 44.9058C46.6949 43.1167 47.7 40.6902 47.7 38.16V14.84C47.7 9.5665 43.4335 5.3 38.16 5.3H14.84ZM40.4125 9.275C41.291 9.275 42.1336 9.62399 42.7548 10.2452C43.376 10.8664 43.725 11.709 43.725 12.5875C43.725 13.466 43.376 14.3086 42.7548 14.9298C42.1336 15.551 41.291 15.9 40.4125 15.9C39.534 15.9 38.6914 15.551 38.0702 14.9298C37.449 14.3086 37.1 13.466 37.1 12.5875C37.1 11.709 37.449 10.8664 38.0702 10.2452C38.6914 9.62399 39.534 9.275 40.4125 9.275ZM26.5 13.25C30.0141 13.25 33.3843 14.646 35.8692 17.1308C38.354 19.6157 39.75 22.9859 39.75 26.5C39.75 30.0141 38.354 33.3843 35.8692 35.8692C33.3843 38.354 30.0141 39.75 26.5 39.75C22.9859 39.75 19.6157 38.354 17.1308 35.8692C14.646 33.3843 13.25 30.0141 13.25 26.5C13.25 22.9859 14.646 19.6157 17.1308 17.1308C19.6157 14.646 22.9859 13.25 26.5 13.25ZM26.5 18.55C24.3915 18.55 22.3694 19.3876 20.8785 20.8785C19.3876 22.3694 18.55 24.3915 18.55 26.5C18.55 28.6085 19.3876 30.6306 20.8785 32.1215C22.3694 33.6124 24.3915 34.45 26.5 34.45C28.6085 34.45 30.6306 33.6124 32.1215 32.1215C33.6124 30.6306 34.45 28.6085 34.45 26.5C34.45 24.3915 33.6124 22.3694 32.1215 20.8785C30.6306 19.3876 28.6085 18.55 26.5 18.55Z" fill="#E6E6E6"/>
</svg>
