<svg width="180" height="134" viewBox="0 0 180 134" fill="none" xmlns="http://www.w3.org/2000/svg">
<path fill-rule="evenodd" clip-rule="evenodd" d="M179.125 67C179.125 64.7125 178.216 62.5187 176.599 60.9012C174.981 59.2837 172.787 58.375 170.5 58.375H9.5C7.21251 58.375 5.0187 59.2837 3.4012 60.9012C1.7837 62.5187 0.875 64.7125 0.875 67C0.875 69.2875 1.7837 71.4813 3.4012 73.0988C5.0187 74.7163 7.21251 75.625 9.5 75.625H170.5C172.787 75.625 174.981 74.7163 176.599 73.0988C178.216 71.4813 179.125 69.2875 179.125 67ZM179.125 9.5C179.125 7.21251 178.216 5.0187 176.599 3.4012C174.981 1.7837 172.787 0.875 170.5 0.875H9.5C7.21251 0.875 5.0187 1.7837 3.4012 3.4012C1.7837 5.0187 0.875 7.21251 0.875 9.5C0.875 11.7875 1.7837 13.9813 3.4012 15.5988C5.0187 17.2163 7.21251 18.125 9.5 18.125H170.5C172.787 18.125 174.981 17.2163 176.599 15.5988C178.216 13.9813 179.125 11.7875 179.125 9.5ZM179.125 124.5C179.125 122.213 178.216 120.019 176.599 118.401C174.981 116.784 172.787 115.875 170.5 115.875H9.5C7.21251 115.875 5.0187 116.784 3.4012 118.401C1.7837 120.019 0.875 122.213 0.875 124.5C0.875 126.787 1.7837 128.981 3.4012 130.599C5.0187 132.216 7.21251 133.125 9.5 133.125H170.5C172.787 133.125 174.981 132.216 176.599 130.599C178.216 128.981 179.125 126.787 179.125 124.5Z" fill="white"/>
</svg>
