<svg width="17" height="13" viewBox="0 0 17 13" fill="none" xmlns="http://www.w3.org/2000/svg">
<path d="M10.9927 0.229885C10.9199 0.156305 10.8338 0.0981334 10.7391 0.0586928C10.6445 0.0192521 10.5432 -0.000685603 10.441 1.79931e-05C10.3389 0.000721589 10.2379 0.0220526 10.1437 0.0627934C10.0496 0.103534 9.96425 0.162887 9.8925 0.237462C9.82075 0.312037 9.76402 0.400375 9.72556 0.497432C9.6871 0.594489 9.66766 0.698363 9.66834 0.803125C9.66903 0.907887 9.68983 1.01149 9.72956 1.108C9.76929 1.20452 9.82717 1.29207 9.89989 1.36565L14.0765 5.58649H0.777766C0.571489 5.58649 0.373662 5.67052 0.227802 5.8201C0.0819429 5.96967 0 6.17254 0 6.38407C0 6.59561 0.0819429 6.79848 0.227802 6.94805C0.373662 7.09763 0.571489 7.18166 0.777766 7.18166H14.0726L9.89989 11.3969C9.76036 11.5469 9.68324 11.7466 9.68486 11.9539C9.68648 12.1612 9.76672 12.3596 9.90857 12.5073C10.0504 12.6549 10.2428 12.7401 10.4448 12.7449C10.6469 12.7496 10.8428 12.6735 10.9911 12.5327L16.3771 7.09154C16.4688 6.99878 16.5417 6.88827 16.5914 6.76641C16.6411 6.64455 16.6667 6.51377 16.6667 6.38168C16.6667 6.24959 16.6411 6.11882 16.5914 5.99696C16.5417 5.8751 16.4688 5.76458 16.3771 5.67183L10.9927 0.229885Z" fill="#E6E6E6"/>
</svg>
