<svg width="29" height="29" viewBox="0 0 29 29" fill="none" xmlns="http://www.w3.org/2000/svg">
<path d="M16.2277 24.5504C17.4769 24.5504 18.1368 26.0292 17.3036 26.9592C16.7618 27.5644 16.0985 28.0485 15.3569 28.38C14.6154 28.7115 13.8123 28.8828 13 28.8828C12.1878 28.8828 11.3847 28.7115 10.6431 28.38C9.90157 28.0485 9.23826 27.5644 8.69648 26.9592C7.89932 26.0697 8.46831 24.6789 9.61207 24.5605L9.77092 24.5519L16.2277 24.5504ZM13 0C14.9612 0 16.619 1.30406 17.1519 3.09191L17.2184 3.33886L17.2299 3.40095C18.8222 4.2988 20.1789 5.5612 21.1891 7.08467C22.1992 8.60814 22.8339 10.3493 23.0411 12.1655L23.0816 12.5799L23.109 12.9973V17.2301L23.1393 17.4265C23.3371 18.4905 23.9259 19.4421 24.79 20.0938L25.0312 20.2628L25.2651 20.4057C26.5071 21.109 26.0738 22.9561 24.7207 23.0976L24.5532 23.1063H1.44689C-0.0376915 23.1063 -0.556139 21.1365 0.734925 20.4057C1.28519 20.0943 1.76062 19.6663 2.12786 19.1516C2.49509 18.6369 2.74523 18.0481 2.8607 17.4265L2.89103 17.22L2.89247 12.9309C2.98053 11.0446 3.52957 9.20873 4.49155 7.58387C5.45353 5.959 6.79912 4.59469 8.41054 3.61036L8.76869 3.39951L8.78313 3.33741C8.98684 2.47357 9.45095 1.69313 10.1127 1.10166C10.7744 0.510184 11.6018 0.136213 12.483 0.0303269L12.7459 0.00577649L13 0Z" fill="#E6E6E6"/>
<path d="M23.0002 27.9413C22.1702 27.9413 21.3902 27.7837 20.6602 27.4685C19.9302 27.1533 19.2952 26.7259 18.7552 26.1863C18.2152 25.6467 17.7878 25.0117 17.473 24.2813C17.1582 23.5509 17.0006 22.7709 17.0002 21.9413C16.9998 21.1117 17.1574 20.3317 17.473 19.6013C17.7886 18.8709 18.216 18.2359 18.7552 17.6963C19.2944 17.1567 19.9294 16.7293 20.6602 16.4141C21.391 16.0989 22.171 15.9413 23.0002 15.9413C23.8294 15.9413 24.6094 16.0989 25.3402 16.4141C26.071 16.7293 26.706 17.1567 27.2452 17.6963C27.7844 18.2359 28.212 18.8709 28.528 19.6013C28.844 20.3317 29.0014 21.1117 29.0002 21.9413C28.999 22.7709 28.8414 23.5509 28.5274 24.2813C28.2134 25.0117 27.786 25.6467 27.2452 26.1863C26.7044 26.7259 26.0694 27.1535 25.3402 27.4691C24.611 27.7847 23.831 27.9421 23.0002 27.9413Z" fill="#FF0000"/>
</svg>
